<?xml version="1.0" encoding="UTF-8"?>
<svg xmlns="http://www.w3.org/2000/svg" xmlns:xlink="http://www.w3.org/1999/xlink" width="300pt" height="300pt" viewBox="0 0 300 300" version="1.1">
<g id="surface1">
<path style=" stroke:none;fill-rule:nonzero;fill:rgb(49.019608%,56.078431%,89.803922%);fill-opacity:1;" d="M 260.449219 241.699219 L 260.449219 278.027344 L 278.027344 278.027344 C 287.734375 278.027344 295.605469 270.15625 295.605469 260.449219 Z M 260.449219 241.699219 "/>
<path style=" stroke:none;fill-rule:nonzero;fill:rgb(58.431373%,69.019608%,92.941176%);fill-opacity:1;" d="M 50.433594 241.699219 L 4.394531 260.449219 C 4.394531 270.15625 12.265625 278.027344 21.972656 278.027344 L 132.421875 278.027344 L 150 260.449219 L 167.578125 278.027344 L 260.449219 278.027344 C 270.15625 278.027344 278.027344 270.15625 278.027344 260.449219 L 278.027344 241.699219 Z M 50.433594 241.699219 "/>
<path style=" stroke:none;fill-rule:nonzero;fill:rgb(40%,42.745098%,86.27451%);fill-opacity:1;" d="M 114.84375 260.449219 L 132.421875 278.027344 L 167.578125 278.027344 L 185.15625 260.449219 L 150 241.699219 Z M 114.84375 260.449219 "/>
<path style=" stroke:none;fill-rule:nonzero;fill:rgb(40%,42.745098%,86.27451%);fill-opacity:1;" d="M 260.449219 21.972656 L 242.871094 21.972656 L 242.871094 250.488281 L 260.449219 232.910156 C 270.117188 232.910156 278.027344 225 278.027344 215.332031 L 278.027344 39.550781 C 278.027344 29.882812 270.117188 21.972656 260.449219 21.972656 Z M 260.449219 21.972656 "/>
<path style=" stroke:none;fill-rule:nonzero;fill:rgb(49.019608%,56.078431%,89.803922%);fill-opacity:1;" d="M 260.449219 39.550781 C 260.449219 29.882812 252.539062 21.972656 242.871094 21.972656 L 39.550781 21.972656 C 29.882812 21.972656 21.972656 29.882812 21.972656 39.550781 L 21.972656 215.332031 C 21.972656 225 29.882812 232.910156 39.550781 232.910156 L 150 250.488281 L 242.871094 232.910156 C 252.539062 232.910156 260.449219 225 260.449219 215.332031 L 150 134.179688 Z M 260.449219 39.550781 "/>
<path style=" stroke:none;fill-rule:nonzero;fill:rgb(58.431373%,69.019608%,92.941176%);fill-opacity:1;" d="M 295.605469 260.449219 L 283.210938 241.03125 C 279.980469 235.972656 274.394531 232.910156 268.394531 232.910156 L 251.042969 232.910156 L 278.027344 260.449219 Z M 295.605469 260.449219 "/>
<path style=" stroke:none;fill-rule:nonzero;fill:rgb(67.45098%,82.352941%,96.470588%);fill-opacity:1;" d="M 250.816406 232.910156 L 31.605469 232.910156 C 25.605469 232.910156 20.019531 235.972656 16.789062 241.03125 L 4.394531 260.449219 L 278.027344 260.449219 L 265.632812 241.03125 C 262.402344 235.972656 256.816406 232.910156 250.816406 232.910156 Z M 250.816406 232.910156 "/>
<path style=" stroke:none;fill-rule:nonzero;fill:rgb(76.862745%,95.294118%,100%);fill-opacity:1;" d="M 242.871094 39.550781 L 150 134.179688 L 242.871094 215.332031 L 260.449219 215.332031 L 260.449219 39.550781 Z M 242.871094 39.550781 "/>
<path style=" stroke:none;fill-rule:nonzero;fill:rgb(100%,100%,100%);fill-opacity:1;" d="M 39.550781 39.550781 L 242.871094 39.550781 L 242.871094 215.332031 L 39.550781 215.332031 Z M 39.550781 39.550781 "/>
<path style=" stroke:none;fill-rule:nonzero;fill:rgb(100%,81.568627%,41.568627%);fill-opacity:1;" d="M 83.496094 147.949219 L 83.496094 188.964844 L 118.652344 188.964844 L 136.230469 147.949219 Z M 83.496094 147.949219 "/>
<path style=" stroke:none;fill-rule:nonzero;fill:rgb(100%,46.27451%,27.843137%);fill-opacity:1;" d="M 118.652344 106.933594 L 118.652344 188.964844 L 153.808594 188.964844 L 171.386719 106.933594 Z M 118.652344 106.933594 "/>
<path style=" stroke:none;fill-rule:nonzero;fill:rgb(100%,20%,42.745098%);fill-opacity:1;" d="M 153.808594 65.917969 L 188.964844 65.917969 L 188.964844 188.964844 L 153.808594 188.964844 Z M 153.808594 65.917969 "/>
<path style=" stroke:none;fill-rule:nonzero;fill:rgb(0%,0%,0%);fill-opacity:1;" d="M 188.964844 193.359375 C 191.390625 193.359375 193.359375 191.390625 193.359375 188.964844 L 193.359375 65.917969 C 193.359375 63.492188 191.390625 61.523438 188.964844 61.523438 L 153.808594 61.523438 C 151.382812 61.523438 149.414062 63.492188 149.414062 65.917969 L 149.414062 102.539062 L 118.652344 102.539062 C 116.226562 102.539062 114.257812 104.507812 114.257812 106.933594 L 114.257812 143.554688 L 83.496094 143.554688 C 81.070312 143.554688 79.101562 145.523438 79.101562 147.949219 L 79.101562 188.964844 C 79.101562 191.390625 81.070312 193.359375 83.496094 193.359375 Z M 158.203125 70.3125 L 184.570312 70.3125 L 184.570312 184.570312 L 158.203125 184.570312 Z M 149.414062 111.328125 L 149.414062 184.570312 L 123.046875 184.570312 L 123.046875 111.328125 Z M 87.890625 152.34375 L 114.257812 152.34375 L 114.257812 184.570312 L 87.890625 184.570312 Z M 87.890625 152.34375 "/>
<path style=" stroke:none;fill-rule:nonzero;fill:rgb(0%,0%,0%);fill-opacity:1;" d="M 216.503906 70.3125 C 218.929688 70.3125 220.898438 68.34375 220.898438 65.917969 C 220.898438 63.492188 218.929688 61.523438 216.503906 61.523438 L 206.542969 61.523438 C 204.117188 61.523438 202.148438 63.492188 202.148438 65.917969 L 202.148438 188.964844 C 202.148438 191.390625 204.117188 193.359375 206.542969 193.359375 L 216.503906 193.359375 C 218.929688 193.359375 220.898438 191.390625 220.898438 188.964844 C 220.898438 186.539062 218.929688 184.570312 216.503906 184.570312 L 210.9375 184.570312 L 210.9375 152.34375 L 216.503906 152.34375 C 218.929688 152.34375 220.898438 150.375 220.898438 147.949219 C 220.898438 145.523438 218.929688 143.554688 216.503906 143.554688 L 210.9375 143.554688 L 210.9375 111.328125 L 216.503906 111.328125 C 218.929688 111.328125 220.898438 109.359375 220.898438 106.933594 C 220.898438 104.507812 218.929688 102.539062 216.503906 102.539062 L 210.9375 102.539062 L 210.9375 70.3125 Z M 216.503906 70.3125 "/>
<path style=" stroke:none;fill-rule:nonzero;fill:rgb(0%,0%,0%);fill-opacity:1;" d="M 299.308594 258.085938 L 286.914062 238.667969 C 284.414062 234.75 280.828125 231.8125 276.675781 230.128906 C 280.242188 226.222656 282.421875 221.027344 282.421875 215.332031 L 282.421875 39.550781 C 282.421875 27.433594 272.566406 17.578125 260.449219 17.578125 L 39.550781 17.578125 C 27.433594 17.578125 17.578125 27.433594 17.578125 39.550781 L 17.578125 215.332031 C 17.578125 221.027344 19.757812 226.222656 23.324219 230.128906 C 19.171875 231.8125 15.585938 234.75 13.085938 238.667969 L 0.691406 258.085938 C 0.238281 258.789062 0 259.609375 0 260.449219 C 0 272.566406 9.855469 282.421875 21.972656 282.421875 L 278.027344 282.421875 C 290.144531 282.421875 300 272.566406 300 260.449219 C 300 259.609375 299.761719 258.789062 299.308594 258.085938 Z M 26.367188 39.550781 C 26.367188 32.28125 32.28125 26.367188 39.550781 26.367188 L 260.449219 26.367188 C 267.71875 26.367188 273.632812 32.28125 273.632812 39.550781 L 273.632812 215.332031 C 273.632812 222.601562 267.71875 228.515625 260.449219 228.515625 L 39.550781 228.515625 C 32.28125 228.515625 26.367188 222.601562 26.367188 215.332031 Z M 20.496094 243.394531 C 22.929688 239.582031 27.082031 237.304688 31.605469 237.304688 L 268.394531 237.304688 C 272.917969 237.304688 277.070312 239.582031 279.503906 243.394531 L 287.585938 256.054688 L 12.414062 256.054688 Z M 174.546875 264.84375 L 165.757812 273.632812 L 134.242188 273.632812 L 125.453125 264.84375 Z M 9.554688 264.84375 L 113.023438 264.84375 L 121.8125 273.632812 L 21.972656 273.632812 C 16.246094 273.632812 11.371094 269.957031 9.554688 264.84375 Z M 278.027344 273.632812 L 178.1875 273.632812 L 186.976562 264.84375 L 290.445312 264.84375 C 288.628906 269.957031 283.753906 273.632812 278.027344 273.632812 Z M 278.027344 273.632812 "/>
<path style=" stroke:none;fill-rule:nonzero;fill:rgb(0%,0%,0%);fill-opacity:1;" d="M 39.550781 219.726562 L 260.449219 219.726562 C 262.875 219.726562 264.84375 217.757812 264.84375 215.332031 L 264.84375 39.550781 C 264.84375 37.125 262.875 35.15625 260.449219 35.15625 L 39.550781 35.15625 C 37.125 35.15625 35.15625 37.125 35.15625 39.550781 L 35.15625 171.386719 C 35.15625 173.8125 37.125 175.78125 39.550781 175.78125 C 41.976562 175.78125 43.945312 173.8125 43.945312 171.386719 L 43.945312 43.945312 L 256.054688 43.945312 L 256.054688 210.9375 L 43.945312 210.9375 L 43.945312 188.964844 C 43.945312 186.539062 41.976562 184.570312 39.550781 184.570312 C 37.125 184.570312 35.15625 186.539062 35.15625 188.964844 L 35.15625 215.332031 C 35.15625 217.757812 37.125 219.726562 39.550781 219.726562 Z M 39.550781 219.726562 "/>
</g>
</svg>
